<svg width="1440" height="1159" viewBox="0 0 1440 1159" fill="none" xmlns="http://www.w3.org/2000/svg">
<g clip-path="url(#clip0_7662_4348)">
<rect width="1440" height="1159" fill="url(#paint0_linear_7662_4348)"/>
<path d="M1440 224L1416 197.3C1392 171 1344 117 1296 96C1248 75 1200 85 1152 80C1104 75 1056 53 1008 85.3C960 117 912 203 864 218.7C816 235 768 181 720 160C672 139 624 149 576 138.7C528 128 480 96 432 112C384 128 336 192 288 218.7C240 245 192 235 144 197.3C96 160 48 96 24 64L0 32V4.57764e-05H24C48 4.57764e-05 96 4.57764e-05 144 4.57764e-05C192 4.57764e-05 240 4.57764e-05 288 4.57764e-05C336 4.57764e-05 384 4.57764e-05 432 4.57764e-05C480 4.57764e-05 528 4.57764e-05 576 4.57764e-05C624 4.57764e-05 672 4.57764e-05 720 4.57764e-05C768 4.57764e-05 816 4.57764e-05 864 4.57764e-05C912 4.57764e-05 960 4.57764e-05 1008 4.57764e-05C1056 4.57764e-05 1104 4.57764e-05 1152 4.57764e-05C1200 4.57764e-05 1248 4.57764e-05 1296 4.57764e-05C1344 4.57764e-05 1392 4.57764e-05 1416 4.57764e-05H1440V224Z" fill="#2D8DE3" fill-opacity="0.8"/>
<g clip-path="url(#clip1_7662_4348)">
<path d="M1440 128L1416 119.375C1392 110.75 1344 93.5 1296 96.357C1248 99.4297 1200 122.07 1152 110.75C1104 99.4297 1056 53.0703 1008 38.893C960 24.5 912 41.75 864 61.857C816 82.1797 768 104.82 720 96.357C672 87.5703 624 47.6797 576 41.75C528 35.8203 480 64.9297 432 87.732C384 110.75 336 128 288 128C240 128 192 110.75 144 96.357C96 82.1797 48 70.3203 24 64.768L0 59V-10H24C48 -10 96 -10 144 -10C192 -10 240 -10 288 -10C336 -10 384 -10 432 -10C480 -10 528 -10 576 -10C624 -10 672 -10 720 -10C768 -10 816 -10 864 -10C912 -10 960 -10 1008 -10C1056 -10 1104 -10 1152 -10C1200 -10 1248 -10 1296 -10C1344 -10 1392 -10 1416 -10H1440V128Z" fill="#1871D1" fill-opacity="0.8"/>
</g>
<g clip-path="url(#clip2_7662_4348)">
<path d="M1440 160L1416 176C1392 192 1344 224 1296 213.3C1248 203 1200 149 1152 149.3C1104 149 1056 203 1008 186.7C960 171 912 85 864 58.7C816 32 768 64 720 69.3C672 75 624 53 576 48C528 43 480 53 432 53.3C384 53 336 43 288 74.7C240 107 192 181 144 202.7C96 224 48 192 24 176L0 160V1.52588e-05H24C48 1.52588e-05 96 1.52588e-05 144 1.52588e-05C192 1.52588e-05 240 1.52588e-05 288 1.52588e-05C336 1.52588e-05 384 1.52588e-05 432 1.52588e-05C480 1.52588e-05 528 1.52588e-05 576 1.52588e-05C624 1.52588e-05 672 1.52588e-05 720 1.52588e-05C768 1.52588e-05 816 1.52588e-05 864 1.52588e-05C912 1.52588e-05 960 1.52588e-05 1008 1.52588e-05C1056 1.52588e-05 1104 1.52588e-05 1152 1.52588e-05C1200 1.52588e-05 1248 1.52588e-05 1296 1.52588e-05C1344 1.52588e-05 1392 1.52588e-05 1416 1.52588e-05H1440V160Z" fill="#106DAA"/>
</g>
</g>
<defs>
<linearGradient id="paint0_linear_7662_4348" x1="720" y1="0" x2="720" y2="724.5" gradientUnits="userSpaceOnUse">
<stop stop-color="#1662C0"/>
<stop offset="0.962761" stop-color="#84C9FF"/>
</linearGradient>
<clipPath id="clip0_7662_4348">
<rect width="1440" height="1159" fill="white"/>
</clipPath>
<clipPath id="clip1_7662_4348">
<rect width="1440" height="320" fill="white" transform="translate(0 -10)"/>
</clipPath>
<clipPath id="clip2_7662_4348">
<rect width="1440" height="320" fill="white" transform="matrix(-1 0 0 -1 1440 320)"/>
</clipPath>
</defs>
</svg>
