<svg width="22" height="22" viewBox="0 0 22 22" fill="none" xmlns="http://www.w3.org/2000/svg">
<path d="M10.0833 11.9167V14.6667C10.0833 14.9264 10.1712 15.1441 10.3469 15.3198C10.5226 15.4955 10.7403 15.5834 11 15.5834C11.2597 15.5834 11.4774 15.4955 11.6531 15.3198C11.8288 15.1441 11.9167 14.9264 11.9167 14.6667V11.9167H14.6667C14.9264 11.9167 15.1441 11.8289 15.3198 11.6532C15.4955 11.4775 15.5833 11.2598 15.5833 11C15.5833 10.7403 15.4955 10.5226 15.3198 10.3469C15.1441 10.1712 14.9264 10.0834 14.6667 10.0834H11.9167V7.33337C11.9167 7.07365 11.8288 6.85594 11.6531 6.68025C11.4774 6.50455 11.2597 6.41671 11 6.41671C10.7403 6.41671 10.5226 6.50455 10.3469 6.68025C10.1712 6.85594 10.0833 7.07365 10.0833 7.33337V10.0834H7.33334C7.07361 10.0834 6.85591 10.1712 6.68021 10.3469C6.50452 10.5226 6.41667 10.7403 6.41667 11C6.41667 11.2598 6.50452 11.4775 6.68021 11.6532C6.85591 11.8289 7.07361 11.9167 7.33334 11.9167H10.0833ZM11 20.1667C9.73195 20.1667 8.54028 19.9261 7.425 19.4448C6.30972 18.9636 5.33959 18.3105 4.51459 17.4855C3.68959 16.6605 3.03646 15.6903 2.55521 14.575C2.07396 13.4598 1.83334 12.2681 1.83334 11C1.83334 9.73199 2.07396 8.54032 2.55521 7.42504C3.03646 6.30976 3.68959 5.33962 4.51459 4.51462C5.33959 3.68962 6.30972 3.0365 7.425 2.55525C8.54028 2.074 9.73195 1.83337 11 1.83337C12.2681 1.83337 13.4597 2.074 14.575 2.55525C15.6903 3.0365 16.6604 3.68962 17.4854 4.51462C18.3104 5.33962 18.9635 6.30976 19.4448 7.42504C19.926 8.54032 20.1667 9.73199 20.1667 11C20.1667 12.2681 19.926 13.4598 19.4448 14.575C18.9635 15.6903 18.3104 16.6605 17.4854 17.4855C16.6604 18.3105 15.6903 18.9636 14.575 19.4448C13.4597 19.9261 12.2681 20.1667 11 20.1667ZM11 18.3334C13.0472 18.3334 14.7813 17.623 16.2021 16.2021C17.6229 14.7813 18.3333 13.0473 18.3333 11C18.3333 8.95282 17.6229 7.21879 16.2021 5.79796C14.7813 4.37712 13.0472 3.66671 11 3.66671C8.95278 3.66671 7.21875 4.37712 5.79792 5.79796C4.37709 7.21879 3.66667 8.95282 3.66667 11C3.66667 13.0473 4.37709 14.7813 5.79792 16.2021C7.21875 17.623 8.95278 18.3334 11 18.3334Z" fill="white"/>
</svg>
