<svg width="22" height="22" viewBox="0 0 22 24" fill="none" xmlns="http://www.w3.org/2000/svg">
<path d="M8.72733 15.8095C7.07581 15.8095 5.67809 15.2103 4.53415 14.0119C3.39021 12.8135 2.81824 11.3492 2.81824 9.61907C2.81824 7.88891 3.39021 6.42462 4.53415 5.22621C5.67809 4.0278 7.07581 3.42859 8.72733 3.42859C10.3788 3.42859 11.7766 4.0278 12.9205 5.22621C14.0644 6.42462 14.6364 7.88891 14.6364 9.61907C14.6364 10.3175 14.5304 10.9762 14.3182 11.5953C14.1061 12.2143 13.8182 12.7619 13.4546 13.2381L18.5455 18.5714C18.7122 18.7461 18.7955 18.9683 18.7955 19.2381C18.7955 19.508 18.7122 19.7302 18.5455 19.9048C18.3788 20.0794 18.1667 20.1667 17.9091 20.1667C17.6516 20.1667 17.4394 20.0794 17.2728 19.9048L12.1819 14.5714C11.7273 14.9524 11.2046 15.254 10.6137 15.4762C10.0228 15.6984 9.39399 15.8095 8.72733 15.8095ZM8.72733 13.9048C9.86369 13.9048 10.8296 13.4881 11.6251 12.6548C12.4205 11.8214 12.8182 10.8095 12.8182 9.61907C12.8182 8.42859 12.4205 7.41668 11.6251 6.58335C10.8296 5.75002 9.86369 5.33335 8.72733 5.33335C7.59096 5.33335 6.62506 5.75002 5.8296 6.58335C5.03415 7.41668 4.63642 8.42859 4.63642 9.61907C4.63642 10.8095 5.03415 11.8214 5.8296 12.6548C6.62506 13.4881 7.59096 13.9048 8.72733 13.9048Z" fill="white"/>
</svg>
